<svg xmlns="http://www.w3.org/2000/svg" viewBox="0 0 64 64">
  <defs>
    <linearGradient id="bg" x1="0%" y1="0%" x2="100%" y2="100%">
      <stop offset="0%" style="stop-color:#6366f1"/>
      <stop offset="100%" style="stop-color:#06b6d4"/>
    </linearGradient>
  </defs>
  <rect width="64" height="64" rx="14" fill="url(#bg)"/>
  <!-- Coffee cup body -->
  <path d="M16 24h24v4c0 8-4 14-12 14s-12-6-12-14v-4z" fill="none" stroke="white" stroke-width="2.5" stroke-linecap="round" stroke-linejoin="round"/>
  <!-- Cup handle -->
  <path d="M40 28h4a4 4 0 0 1 0 8h-4" fill="none" stroke="white" stroke-width="2.5" stroke-linecap="round" stroke-linejoin="round"/>
  <!-- Steam lines -->
  <path d="M22 18c0-2 2-2 2-4" fill="none" stroke="white" stroke-width="2" stroke-linecap="round"/>
  <path d="M28 18c0-2 2-2 2-4" fill="none" stroke="white" stroke-width="2" stroke-linecap="round"/>
  <path d="M34 18c0-2 2-2 2-4" fill="none" stroke="white" stroke-width="2" stroke-linecap="round"/>
  <!-- Saucer -->
  <line x1="14" y1="46" x2="42" y2="46" stroke="white" stroke-width="2.5" stroke-linecap="round"/>
</svg>